<svg width="134" height="66" viewBox="0 0 134 50" fill="none" xmlns="http://www.w3.org/2000/svg">
<path d="M1.40625 37V12.3906H4.46484V23.1133H7.62891V26.1016H4.46484V37H1.40625ZM9.38672 26.1016V23.1133H12.5156V12.3906H15.6094V37H12.5156V26.1016H9.38672ZM18.3516 31.7969V23.1133C18.3516 22.0117 18.8438 20.9336 19.8281 19.8789C21.0469 18.6133 22.5703 17.9805 24.3984 17.9805V20.8281C23.0156 20.8281 22.0547 21.4023 21.5156 22.5508C21.3516 22.9023 21.2695 23.2539 21.2695 23.6055V31.3398C21.2695 32.207 21.668 32.9453 22.4648 33.5547C23.0273 33.9766 23.6719 34.1875 24.3984 34.1875V37.0352C22.1719 37.0352 20.4492 36.1328 19.2305 34.3281C18.6445 33.4375 18.3516 32.5938 18.3516 31.7969ZM25.9102 37.0352V34.1875C27.1523 34.1875 28.043 33.625 28.582 32.5C28.7695 32.125 28.8633 31.7617 28.8633 31.4102V23.6055C28.8633 22.6445 28.4531 21.8828 27.6328 21.3203C27.1172 20.9922 26.5312 20.8281 25.875 20.8281V17.9805C28.0312 17.9805 29.6953 18.8594 30.8672 20.6172C31.4531 21.4844 31.7461 22.3164 31.7461 23.1133V31.7969C31.7461 32.9453 31.2539 34.0586 30.2695 35.1367C29.1211 36.3789 27.668 37.0117 25.9102 37.0352ZM34.418 31.9375V18.0156H37.4062V31.5859C37.4062 32.4297 37.8281 33.1328 38.6719 33.6953C39.2344 34.0469 39.8555 34.2227 40.5352 34.2227V37.1758C38.2852 37.1758 36.5508 36.2969 35.332 34.5391C34.7227 33.6484 34.418 32.7812 34.418 31.9375ZM42.082 37.1758V34.2227C43.3477 34.2227 44.2734 33.7188 44.8594 32.7109C45.0703 32.3359 45.1758 31.9609 45.1758 31.5859V18.0156H48.1641V31.9375C48.1641 33.0391 47.6602 34.1289 46.6523 35.207C45.4336 36.4961 43.9102 37.1523 42.082 37.1758ZM50.2031 32.0078L52.9805 31.4805C52.9805 32.5352 53.5312 33.3672 54.6328 33.9766C55.1719 34.2344 55.6875 34.375 56.1797 34.3984V37.1758C53.9062 37.1758 52.207 36.3555 51.082 34.7148C50.4961 33.8477 50.2031 32.9453 50.2031 32.0078ZM50.3789 23.3594C50.3789 21.2266 51.3516 19.6445 53.2969 18.6133C54.2344 18.1211 55.1719 17.875 56.1094 17.875V20.6172C55.0312 20.6172 54.1992 21.0625 53.6133 21.9531C53.3086 22.3984 53.1562 22.8672 53.1562 23.3594C53.1562 24.1094 53.7422 24.7188 54.9141 25.1875C55.8047 25.5625 57.5273 26.0547 60.082 26.6641C61.6758 26.9922 62.8125 27.7773 63.4922 29.0195C63.8438 29.6758 64.0195 30.4141 64.0195 31.2344C64.0195 33.4844 63.1172 35.1484 61.3125 36.2266C60.2578 36.8594 59.0508 37.1758 57.6914 37.1758V34.3984C58.7695 34.3984 59.6719 34.0234 60.3984 33.2734C60.9141 32.7344 61.1719 32.1016 61.1719 31.375C61.1719 30.4375 60.2461 29.6875 58.3945 29.125C57.9258 28.9844 57.1758 28.7852 56.1445 28.5273C55.043 28.2695 54.2461 28.0586 53.7539 27.8945C51.9727 27.1914 50.8945 26.125 50.5195 24.6953C50.4258 24.2734 50.3789 23.8281 50.3789 23.3594ZM57.6562 20.6523V17.875C59.6719 17.875 61.3008 18.625 62.543 20.125C63.3164 21.0859 63.7031 22.0938 63.7031 23.1484L60.9258 23.6055C60.9258 22.3164 60.2227 21.4141 58.8164 20.8984C58.3945 20.7344 58.0078 20.6523 57.6562 20.6523ZM66.0938 31.7969V23.0781C66.1172 22 66.6328 20.9336 67.6406 19.8789C68.8594 18.6367 70.3359 18.0039 72.0703 17.9805V20.7578C70.9453 20.7578 70.0664 21.25 69.4336 22.2344C69.1758 22.6562 69.0469 23.043 69.0469 23.3945V25.7852H76.9219V23.3945C76.9219 22.3398 76.3828 21.5664 75.3047 21.0742C74.8125 20.8398 74.3086 20.7227 73.793 20.7227V17.9805C75.4102 17.9805 76.8516 18.5547 78.1172 19.7031C79.1719 20.7109 79.7109 21.8242 79.7344 23.043V28.6328H69.0469V31.7969C69.0469 32.4531 69.4219 33.0625 70.1719 33.625C70.7812 34.0469 71.4258 34.2578 72.1055 34.2578V37C69.9727 37 68.2969 36.1328 67.0781 34.3984C66.4219 33.4844 66.0938 32.6172 66.0938 31.7969ZM73.793 37V34.2227C75.1992 34.2227 76.2539 33.6133 76.957 32.3945C77.0977 32.1367 77.2031 31.8906 77.2734 31.6562L79.7695 32.5703C79.3477 34.1875 78.3867 35.4062 76.8867 36.2266C75.9258 36.7422 74.8945 37 73.793 37ZM81.4922 12.3906H84.5859L90.8438 33.7656L89.7188 37H88.6289L81.4922 12.3906ZM90.0703 25.4336L94.4297 12.3906H97.5234C97.3125 13.0703 96.4336 15.7891 94.8867 20.5469C93.082 26.0781 92.0508 29.2539 91.793 30.0742H91.4414L90.0703 25.4336ZM99.2109 30.1445V18.5781C99.2109 17.3359 99.7383 16.0703 100.793 14.7812C102.199 13.0938 103.98 12.2383 106.137 12.2148V15.2734C104.707 15.2734 103.594 16 102.797 17.4531C102.469 18.0859 102.305 18.6484 102.305 19.1406V30.1445C102.305 31.6211 103.031 32.7695 104.484 33.5898C105.094 33.9414 105.633 34.1172 106.102 34.1172V37.1758C104.766 37.1758 103.43 36.6953 102.094 35.7344C100.195 34.3281 99.2344 32.4648 99.2109 30.1445ZM108.035 37.1758V34.1172C108.855 34.1172 109.688 33.7539 110.531 33.0273C111.422 32.2305 111.879 31.2695 111.902 30.1445V19.1406C111.902 18.2266 111.527 17.3477 110.777 16.5039C110.004 15.707 109.09 15.2969 108.035 15.2734V12.2148C110.402 12.2148 112.301 13.2344 113.73 15.2734C114.551 16.4453 114.961 17.5469 114.961 18.5781V30.1445C114.961 32.7461 113.801 34.7383 111.48 36.1211C110.262 36.8242 109.113 37.1758 108.035 37.1758ZM117.809 37H120.867V12.3906H117.809V37ZM122.625 25.9961H126.422C129.492 25.9727 131.414 24.8008 132.188 22.4805C132.492 21.543 132.645 20.4297 132.645 19.1406C132.645 14.8516 130.711 12.6016 126.844 12.3906C126.703 12.3906 126.562 12.3906 126.422 12.3906H122.625V15.3438H125.93C128.297 15.3906 129.492 16.6562 129.516 19.1406C129.469 21.6953 128.285 22.9844 125.965 23.0078H122.625V25.9961Z" fill="white"/>
</svg>
